<?xml version="1.0" encoding="utf-8"?>
<!-- Generator: Adobe Illustrator 23.1.1, SVG Export Plug-In . SVG Version: 6.00 Build 0)  -->
<svg version="1.1" xmlns="http://www.w3.org/2000/svg" xmlns:xlink="http://www.w3.org/1999/xlink" x="0px" y="0px"
	 viewBox="0 0 3710 3710" style="enable-background:new 0 0 3710 3710;" xml:space="preserve">
<style type="text/css">
	.st0{display:none;}
	.st1{fill:url(#SVGID_1_);}
	.st2{fill:#BDD0FB;}
	.st3{fill:url(#SVGID_2_);}
	.st4{fill:url(#SVGID_3_);}
	.st5{fill:url(#SVGID_4_);}
	.st6{fill:url(#SVGID_5_);}
	.st7{fill:url(#SVGID_6_);}
	.st8{fill:url(#SVGID_7_);}
	.st9{fill:#7D97F4;}
	.st10{fill:url(#SVGID_8_);}
	.st11{fill:url(#SVGID_9_);}
	.st12{fill:url(#SVGID_10_);}
	.st13{fill:#91B3FA;}
	.st14{opacity:0.78;fill:#FFFFFF;}
	.st15{fill:url(#SVGID_11_);}
	.st16{fill:url(#SVGID_12_);}
	.st17{opacity:0.6;}
	.st18{fill:#FFFFFF;}
	.st19{opacity:0.6;fill:#FFFFFF;}
	.st20{fill:url(#SVGID_13_);}
	.st21{fill:#F69110;}
	.st22{fill:url(#SVGID_14_);}
	.st23{fill:url(#SVGID_15_);}
	.st24{fill:url(#SVGID_16_);}
	.st25{fill:url(#SVGID_17_);}
	.st26{fill:url(#SVGID_18_);}
	.st27{fill:url(#SVGID_19_);}
	.st28{fill:url(#SVGID_20_);}
	.st29{fill:url(#SVGID_21_);}
	.st30{fill:url(#SVGID_22_);}
	.st31{fill:url(#SVGID_23_);}
	.st32{fill:url(#SVGID_24_);}
	.st33{fill:url(#SVGID_25_);}
	.st34{fill:url(#SVGID_26_);}
	.st35{fill:url(#SVGID_27_);}
	.st36{fill:url(#SVGID_28_);}
	.st37{fill:url(#SVGID_29_);}
	.st38{fill:url(#SVGID_30_);}
	.st39{fill:url(#SVGID_31_);}
	.st40{fill:url(#SVGID_32_);}
	.st41{fill:#1B74FD;}
	.st42{fill:url(#SVGID_33_);}
	.st43{fill:url(#SVGID_34_);}
	.st44{fill:url(#SVGID_35_);}
	.st45{fill:url(#SVGID_36_);}
</style>
<g id="Background" class="st0">
</g>
<g id="Illustration">
	<g>
		<linearGradient id="SVGID_1_" gradientUnits="userSpaceOnUse" x1="3593.7312" y1="4039.252" x2="1139.0883" y2="990.7395">
			<stop  offset="0" style="stop-color:#DAE3FE"/>
			<stop  offset="1" style="stop-color:#E9EFFD"/>
		</linearGradient>
		<path class="st1" d="M2918.44,2837.03c-56.38,59.36-109.73,97.64-151.88,127.88c-495.46,355.5-1081.72,251.87-1206.31,226.56
			c-183.99-37.37-539.64-109.6-796.77-411.98c-389.01-457.47-328.44-1178.2-26.69-1653.97c55.19-87.03,346.74-570.04,939.32-647.5
			c358.62-46.88,776.65,47.67,1079.38,301.3C3390.94,1311.71,3345.71,2387.22,2918.44,2837.03z"/>
		<g>
			<g>
				<path class="st2" d="M486.02,3162.22l1198.7,0v-239.92l-1198.7,0C511.68,2922.31,511.68,3162.22,486.02,3162.22z"/>
				<linearGradient id="SVGID_2_" gradientUnits="userSpaceOnUse" x1="1625.9807" y1="2464.7642" x2="654.8974" y2="3519.5596">
					<stop  offset="0" style="stop-color:#4F52FF"/>
					<stop  offset="1" style="stop-color:#4042E2"/>
				</linearGradient>
				<path class="st3" d="M1684.73,3102.19v-109.8c0-38.71-23.69-70.08-52.91-70.08H491.08c-22.98,0-41.61-18.63-41.61-41.61v0
					c0-6.98,5.66-12.64,12.64-12.64h1246.74c28.59,0,73.99,44.95,73.99,100.4v153.35c0,52.28-44.07,94.67-71.03,94.67H468.67
					c-10.6,0-19.2-8.6-19.2-19.2c0-19.36,15.69-35.05,35.05-35.05H1639.4C1664.43,3162.22,1684.73,3135.35,1684.73,3102.19z"/>
			</g>
			<linearGradient id="SVGID_3_" gradientUnits="userSpaceOnUse" x1="524.1373" y1="2971.5325" x2="1654.8746" y2="2971.5325">
				<stop  offset="0" style="stop-color:#DAE3FE"/>
				<stop  offset="1" style="stop-color:#E9EFFD"/>
			</linearGradient>
			<path class="st4" d="M1651.48,2974.93H527.53c-1.88,0-3.39-1.52-3.39-3.39s1.52-3.39,3.39-3.39h1123.95
				c1.88,0,3.39,1.52,3.39,3.39S1653.36,2974.93,1651.48,2974.93z"/>
			<linearGradient id="SVGID_4_" gradientUnits="userSpaceOnUse" x1="524.1373" y1="3007.1448" x2="1654.8746" y2="3007.1448">
				<stop  offset="0" style="stop-color:#DAE3FE"/>
				<stop  offset="1" style="stop-color:#E9EFFD"/>
			</linearGradient>
			<path class="st5" d="M1651.48,3010.54H527.53c-1.88,0-3.39-1.52-3.39-3.39c0-1.87,1.52-3.39,3.39-3.39h1123.95
				c1.88,0,3.39,1.52,3.39,3.39C1654.87,3009.02,1653.36,3010.54,1651.48,3010.54z"/>
			<linearGradient id="SVGID_5_" gradientUnits="userSpaceOnUse" x1="524.1373" y1="3042.7571" x2="1654.8746" y2="3042.7571">
				<stop  offset="0" style="stop-color:#DAE3FE"/>
				<stop  offset="1" style="stop-color:#E9EFFD"/>
			</linearGradient>
			<path class="st6" d="M1651.48,3046.15H527.53c-1.88,0-3.39-1.52-3.39-3.39c0-1.87,1.52-3.39,3.39-3.39h1123.95
				c1.88,0,3.39,1.52,3.39,3.39C1654.87,3044.63,1653.36,3046.15,1651.48,3046.15z"/>
			<linearGradient id="SVGID_6_" gradientUnits="userSpaceOnUse" x1="524.1373" y1="3078.3679" x2="1654.8746" y2="3078.3679">
				<stop  offset="0" style="stop-color:#DAE3FE"/>
				<stop  offset="1" style="stop-color:#E9EFFD"/>
			</linearGradient>
			<path class="st7" d="M1651.48,3081.76H527.53c-1.88,0-3.39-1.52-3.39-3.39s1.52-3.39,3.39-3.39h1123.95
				c1.88,0,3.39,1.52,3.39,3.39S1653.36,3081.76,1651.48,3081.76z"/>
			<linearGradient id="SVGID_7_" gradientUnits="userSpaceOnUse" x1="524.1373" y1="3113.9802" x2="1654.8746" y2="3113.9802">
				<stop  offset="0" style="stop-color:#DAE3FE"/>
				<stop  offset="1" style="stop-color:#E9EFFD"/>
			</linearGradient>
			<path class="st8" d="M1651.48,3117.38H527.53c-1.88,0-3.39-1.52-3.39-3.39c0-1.87,1.52-3.39,3.39-3.39h1123.95
				c1.88,0,3.39,1.52,3.39,3.39C1654.87,3115.85,1653.36,3117.38,1651.48,3117.38z"/>
		</g>
		<g>
			<path class="st9" d="M650.39,2870.8h966.74c37.67,0,68.22-30.54,68.22-68.22v-129.86c0-37.67-30.54-68.22-68.22-68.22H650.39
				c-37.67,0-68.22,30.54-68.22,68.22v129.86C582.17,2840.26,612.71,2870.8,650.39,2870.8z"/>
			<linearGradient id="SVGID_8_" gradientUnits="userSpaceOnUse" x1="2022.2439" y1="2030.3439" x2="1033.8011" y2="3358.5642">
				<stop  offset="0" style="stop-color:#53D8FF"/>
				<stop  offset="1" style="stop-color:#3840F7"/>
			</linearGradient>
			<path class="st10" d="M1438.32,2840.19h115.11c4,0,7.24-3.24,7.24-7.24v-190.6c0-4-3.24-7.24-7.24-7.24h-115.11
				c-4,0-7.24,3.24-7.24,7.24v190.6C1431.07,2836.95,1434.32,2840.19,1438.32,2840.19z"/>
			<linearGradient id="SVGID_9_" gradientUnits="userSpaceOnUse" x1="1948.316" y1="1984.3247" x2="969.1027" y2="3300.1431">
				<stop  offset="0" style="stop-color:#53D8FF"/>
				<stop  offset="1" style="stop-color:#3840F7"/>
			</linearGradient>
			<path class="st11" d="M1367.06,2840.19h41.29c2.03,0,3.67-1.64,3.67-3.67v-197.74c0-2.03-1.64-3.67-3.67-3.67h-41.29
				c-2.03,0-3.67,1.64-3.67,3.67v197.74C1363.39,2838.55,1365.03,2840.19,1367.06,2840.19z"/>
		</g>
		<g>
			<path class="st2" d="M1588.97,1935.58c0,0-270.47-946.56-764.09-1447.13c-33.18-33.65-90.42-17.48-100.8,28.62
				C654.66,825.36,536.96,1756.21,1588.97,1935.58z"/>
			<linearGradient id="SVGID_10_" gradientUnits="userSpaceOnUse" x1="827.6609" y1="1330.9374" x2="1491.7321" y2="1330.9374">
				<stop  offset="0" style="stop-color:#DAE3FE"/>
				<stop  offset="1" style="stop-color:#E9EFFD"/>
			</linearGradient>
			<path class="st12" d="M1490.82,1878.24c2.44,2.18-0.49,5.93-3.2,4.1c-99.93-67.45-489.74-403.52-659.9-1101.01
				c-0.55-2.24,2.74-3.25,3.48-1.07C885.58,941.26,1104.89,1534.05,1490.82,1878.24z"/>
		</g>
		<g>
			<path class="st13" d="M1804.82,2641.8c0,0-530.1-1075.32-1230.52-1567.69c-47.08-33.1-112.15-1.26-114.55,56.24
				C443.65,1514.86,505.22,2655.84,1804.82,2641.8z"/>
			<path class="st2" d="M1674.72,2594.46c3.4,2.08,0.71,7.21-2.94,5.61c-134.43-59.07-674.65-376.92-1030.34-1175.64
				c-1.14-2.57,2.57-4.5,3.93-2.04C745.57,1603.46,1137.38,2266.03,1674.72,2594.46z"/>
		</g>
		<g>
			<path class="st9" d="M888.51,645.97c-0.36-32.36,27.97-57.55,60.06-53.37c212.83,27.74,944.65,113.13,1549.09,63.57
				c27.56-2.26,51.6,18.51,53.22,46.12l132.34,2267.43c1.81,31.09-21.79,57.81-52.87,59.81c-254.24,16.37-1301.29,80-1675.07,42.82
				c-22.75-2.26-40.11-21.32-40.36-44.18L888.51,645.97z"/>
			<path class="st2" d="M913.86,702.68c-0.35-31.14,26.92-55.39,57.8-51.36c204.82,26.69,909.08,108.87,1490.76,61.17
				c26.53-2.18,49.66,17.81,51.21,44.38l127.36,2182.05c1.75,29.92-20.97,55.63-50.88,57.56
				c-244.66,15.76-1252.29,76.99-1611.99,41.21c-21.89-2.18-38.6-20.51-38.84-42.51L913.86,702.68z"/>
			<path class="st14" d="M1104.21,869.97l24.17,467.83c0.8,15.56,13.44,27.87,29.02,28.23c86.68,1.99,356.75,7.17,509.19-1.57
				c17.24-0.99,30.82-15.01,31.3-32.28c2.45-87.77,7.48-343.22-13.07-449.89c-3.32-17.23-18.21-29.79-35.75-30.31l-512.33-15.25
				C1118.26,836.17,1103.25,851.51,1104.21,869.97z"/>
			
				<linearGradient id="SVGID_11_" gradientUnits="userSpaceOnUse" x1="1327.8002" y1="751.5552" x2="2423.6704" y2="1997.1332" gradientTransform="matrix(0.981 0.1939 -0.1939 0.981 106.7529 -193.4376)">
				<stop  offset="0" style="stop-color:#CE1567"/>
				<stop  offset="1" style="stop-color:#7A1DBC"/>
			</linearGradient>
			<circle class="st15" cx="1399.83" cy="1035.73" r="100.59"/>
			
				<linearGradient id="SVGID_12_" gradientUnits="userSpaceOnUse" x1="1231.2823" y1="836.4465" x2="2327.1865" y2="2082.063" gradientTransform="matrix(0.981 0.1939 -0.1939 0.981 106.7529 -193.4376)">
				<stop  offset="0" style="stop-color:#CE1567"/>
				<stop  offset="1" style="stop-color:#7A1DBC"/>
			</linearGradient>
			<path class="st16" d="M1248.57,1331.87l320.47-1.67c19.65-0.1,31.31-21.86,20.64-38.36c-27.44-42.45-84.72-104.73-183.34-101.39
				c-95.05,3.22-151.1,60.03-179.22,100.72C1215.19,1308.43,1227.58,1331.98,1248.57,1331.87z"/>
			<g class="st17">
				<path class="st18" d="M2388.19,904.02c8.81-0.05,15.77-7.15,15.48-15.78s-7.75-15.79-16.56-15.9l-566.22-7.14
					c-8.81-0.11-13.59,6.58-10.62,14.88l4.23,11.82c2.97,8.29,12.61,15.04,21.42,15L2388.19,904.02z"/>
			</g>
			<g class="st17">
				<path class="st18" d="M1821.34,952.44c-8.81-0.11-13.59,6.58-10.62,14.88l4.23,11.82c2.97,8.29,12.61,15.04,21.42,15
					l552.27-2.87c8.81-0.05,15.77-7.15,15.48-15.78s-7.75-15.79-16.56-15.9L1821.34,952.44z"/>
			</g>
			<g class="st17">
				<path class="st18" d="M1821.81,1040.94c-8.81-0.11-13.59,6.58-10.62,14.88l4.23,11.82c2.97,8.29,12.61,15.04,21.42,15
					l552.27-2.87c8.81-0.05,15.77-7.15,15.48-15.78c-0.3-8.63-7.75-15.79-16.56-15.9L1821.81,1040.94z"/>
			</g>
			<g class="st17">
				<path class="st18" d="M2445.88,1506.28c8.81-0.05,15.51-7.14,14.9-15.78s-8.33-15.71-17.14-15.74l-1320.45-3.54
					c-8.81-0.02-11.5,5.57-5.98,12.44l13.62,16.92c5.52,6.86,17.25,12.44,26.06,12.4L2445.88,1506.28z"/>
			</g>
			<g class="st17">
				<path class="st18" d="M1123.66,1558.47c-8.81-0.02-11.5,5.57-5.98,12.44l13.62,16.92c5.52,6.86,17.25,12.44,26.06,12.4
					l1288.98-6.71c8.81-0.05,15.51-7.14,14.9-15.78c-0.61-8.63-8.33-15.71-17.14-15.74L1123.66,1558.47z"/>
			</g>
			<path class="st19" d="M1120.71,1704.16c31.63-2.59,90.87-4.02,123.49-4.65c13.82-0.26,25.99,9.03,29.3,22.45
				c6.43,26.06,15.35,71.33,14.51,119.35c-0.25,14.38-11.97,25.92-26.35,25.84l-120.37-0.67c-14.8-0.08-27.15-11.33-28.6-26.06
				l-11.17-113.17C1100.35,1715.54,1108.98,1705.12,1120.71,1704.16z"/>
			<g class="st17">
				<path class="st18" d="M1341.3,1749.41c-8.8-0.32-14.9,6.54-13.55,15.24l3.7,23.8c1.35,8.71,9.67,15.79,18.48,15.74l296.77-1.54
					c8.81-0.05,15.89-7.29,15.74-16.1l-0.17-9.4c-0.16-8.81-7.49-16.28-16.29-16.6L1341.3,1749.41z"/>
			</g>
			<path class="st19" d="M1776.41,1700.75c31.63-2.59,90.87-4.02,123.49-4.65c13.82-0.26,25.99,9.03,29.3,22.45
				c6.43,26.06,15.35,71.33,14.51,119.35c-0.25,14.38-11.97,25.92-26.35,25.84l-120.37-0.67c-14.8-0.08-27.15-11.33-28.6-26.06
				l-11.17-113.17C1756.05,1712.12,1764.68,1701.71,1776.41,1700.75z"/>
			<g class="st17">
				<path class="st18" d="M1997,1746c-8.8-0.32-14.9,6.54-13.55,15.24l3.7,23.8c1.35,8.71,9.67,15.79,18.48,15.74l296.77-1.54
					c8.81-0.05,15.89-7.29,15.74-16.1l-0.17-9.4c-0.16-8.81-7.49-16.28-16.29-16.6L1997,1746z"/>
			</g>
			<g>
				<path class="st18" d="M1292.86,2152.51c-0.1,0-0.2,0-0.3,0l-111.07-0.49c-15.87-0.07-29.02-10.92-30.6-25.23l-10.25-93.13
					c-0.6-5.47,1.07-10.88,4.7-15.25c4.07-4.89,10.25-7.98,16.95-8.47l0,0c9.35-0.69,22.53-1.88,36.47-3.14
					c29.36-2.66,65.9-5.96,86.47-6.32c14.92-0.15,27.63,8.61,31.21,21.59c5.9,21.36,5.6,61.86,4.72,105
					C1320.89,2141.07,1308.22,2152.43,1292.86,2152.51z M1162.92,2018.44c-4.41,0.32-8.42,2.3-11.02,5.42
					c-2.14,2.57-3.13,5.72-2.78,8.86l10.25,93.13c1.1,10.01,10.63,17.59,22.16,17.64l111.07,0.49c0.07,0,0.15,0,0.22,0
					c10.76-0.06,19.63-7.68,19.83-17.1c0.86-42.49,1.17-82.3-4.42-102.56c-2.51-9.08-12-15.35-22.84-15.33
					c-20.26,0.36-56.63,3.65-85.85,6.29C1185.55,2016.55,1172.35,2017.74,1162.92,2018.44L1162.92,2018.44z"/>
				<path class="st19" d="M1174.92,2027.99c23.32-1.72,74.01-7.13,98.06-7.55c10.19-0.18,19.16,5.93,21.6,14.75
					c4.73,17.14,4.29,51.35,3.65,82.93c-0.19,9.46-8.84,17.05-19.44,17l-88.76-0.39c-10.91-0.05-20.01-7.44-21.08-17.13l-8.19-74.43
					C1159.91,2035.48,1166.28,2028.63,1174.92,2027.99z"/>
				<g class="st17">
					<path class="st18" d="M1390.09,2090.13c3.28,12.18,14.4,20.58,27.01,20.4l1027.56-14.11c11.62-0.16,20.87-9.79,20.56-21.42
						c-0.31-11.3-9.56-20.3-20.86-20.29l-1027.65,0.66C1398.56,2055.39,1385.37,2072.61,1390.09,2090.13z"/>
				</g>
				<path class="st18" d="M1294.1,2390.55c-0.1,0-0.2,0-0.3,0l-111.07-0.49c-15.87-0.07-29.02-10.92-30.6-25.23l-10.25-93.13
					c-0.6-5.47,1.07-10.88,4.7-15.25c4.07-4.89,10.25-7.98,16.95-8.47l0,0c9.35-0.69,22.52-1.88,36.47-3.14
					c29.36-2.66,65.9-5.96,86.47-6.32c0.15,0,0.3-0.01,0.45-0.01c14.61-0.08,27.22,8.75,30.77,21.6c5.9,21.36,5.6,61.86,4.72,105
					C1322.13,2379.11,1309.46,2390.47,1294.1,2390.55z M1164.16,2256.47c-4.41,0.32-8.42,2.3-11.02,5.42
					c-2.14,2.57-3.13,5.72-2.78,8.86l10.25,93.13c1.1,10.01,10.63,17.59,22.16,17.64l111.07,0.49c0.07,0,0.15,0,0.22,0
					c10.76-0.06,19.63-7.69,19.83-17.1c0.86-42.49,1.17-82.3-4.42-102.56c-2.51-9.07-12.13-15.56-22.84-15.33
					c-20.26,0.36-56.63,3.65-85.85,6.29C1186.79,2254.58,1173.59,2255.78,1164.16,2256.47L1164.16,2256.47z"/>
				<path class="st19" d="M1176.16,2266.03c23.32-1.72,74.01-7.13,98.06-7.55c10.19-0.18,19.16,5.93,21.6,14.75
					c4.73,17.14,4.29,51.35,3.65,82.93c-0.19,9.46-8.84,17.05-19.44,17l-88.76-0.39c-10.92-0.05-20.02-7.44-21.08-17.13l-8.19-74.43
					C1161.15,2273.52,1167.52,2266.66,1176.16,2266.03z"/>
				<g class="st17">
					<path class="st18" d="M1391.33,2328.16c3.28,12.18,14.4,20.58,27.01,20.4l1027.56-14.11c11.62-0.16,20.87-9.79,20.56-21.42
						c-0.31-11.3-9.56-20.3-20.86-20.29l-1027.65,0.66C1399.8,2293.43,1386.61,2310.65,1391.33,2328.16z"/>
				</g>
				<path class="st18" d="M1295.34,2628.58c-0.1,0-0.2,0-0.3,0l-111.07-0.49c-15.87-0.07-29.02-10.91-30.6-25.23l-10.25-93.13
					c-0.6-5.47,1.07-10.89,4.7-15.26c4.07-4.89,10.24-7.98,16.95-8.47l0,0c9.35-0.69,22.53-1.88,36.47-3.14
					c29.36-2.66,65.9-5.96,86.47-6.32c0.15,0,0.3-0.01,0.45-0.01c14.61-0.08,27.22,8.75,30.77,21.6c5.9,21.36,5.6,61.86,4.72,105
					C1323.37,2617.14,1310.7,2628.5,1295.34,2628.58z M1165.4,2494.51c-4.41,0.32-8.42,2.3-11.02,5.42
					c-2.14,2.57-3.13,5.72-2.78,8.87l10.25,93.13c1.1,10.01,10.63,17.59,22.16,17.64l111.07,0.49c0.07,0,0.15,0,0.22,0
					c10.76-0.06,19.63-7.69,19.83-17.1c0.86-42.49,1.17-82.3-4.42-102.56c-2.51-9.07-12.13-15.59-22.84-15.33
					c-20.26,0.36-56.63,3.65-85.85,6.29C1188.03,2492.62,1174.82,2493.81,1165.4,2494.51L1165.4,2494.51z"/>
				<path class="st19" d="M1177.4,2504.06c23.32-1.72,74.01-7.13,98.06-7.55c10.19-0.18,19.16,5.93,21.6,14.75
					c4.73,17.14,4.29,51.35,3.65,82.93c-0.19,9.46-8.84,17.05-19.44,17l-88.76-0.39c-10.91-0.05-20.02-7.44-21.08-17.13l-8.19-74.43
					C1162.38,2511.55,1168.75,2504.7,1177.4,2504.06z"/>
				<g class="st17">
					<path class="st18" d="M1392.57,2566.2c3.28,12.18,14.4,20.58,27.01,20.4l1027.55-14.11c11.62-0.16,20.87-9.79,20.56-21.42
						c-0.31-11.3-9.56-20.3-20.86-20.29l-1027.65,0.66C1401.04,2531.46,1387.85,2548.68,1392.57,2566.2z"/>
				</g>
				<path class="st18" d="M1296.58,2866.62c-0.1,0-0.2,0-0.3,0l-111.07-0.49c-15.87-0.07-29.02-10.91-30.6-25.23l-10.25-93.13
					c-0.6-5.47,1.07-10.89,4.71-15.26c4.07-4.89,10.24-7.98,16.95-8.47l0,0c9.35-0.69,22.53-1.88,36.47-3.14
					c29.36-2.66,65.9-5.96,86.47-6.32c0.15,0,0.3-0.01,0.45-0.01c14.61-0.08,27.22,8.75,30.77,21.6c5.9,21.36,5.6,61.86,4.72,105
					C1324.61,2855.18,1311.94,2866.54,1296.58,2866.62z M1166.64,2732.54c-4.41,0.32-8.42,2.3-11.02,5.42
					c-2.14,2.57-3.13,5.72-2.78,8.87l10.25,93.13c1.1,10.01,10.63,17.59,22.16,17.64l111.07,0.49c0.07,0,0.15,0,0.22,0
					c10.76-0.06,19.63-7.69,19.83-17.1c0.86-42.49,1.17-82.3-4.42-102.56c-2.51-9.07-12.13-15.62-22.84-15.33
					c-20.26,0.36-56.63,3.65-85.85,6.29C1189.27,2730.65,1176.06,2731.85,1166.64,2732.54L1166.64,2732.54z"/>
				<path class="st19" d="M1178.64,2742.1c23.32-1.72,74.01-7.13,98.06-7.55c10.19-0.18,19.16,5.93,21.6,14.75
					c4.73,17.14,4.29,51.35,3.65,82.93c-0.19,9.46-8.84,17.05-19.44,17l-88.76-0.39c-10.92-0.05-20.02-7.44-21.08-17.13l-8.19-74.43
					C1163.62,2749.59,1169.99,2742.73,1178.64,2742.1z"/>
				<g class="st17">
					<path class="st18" d="M1393.81,2804.23L1393.81,2804.23c3.28,12.18,14.4,20.58,27.01,20.4l1027.56-14.11
						c11.62-0.16,20.87-9.79,20.56-21.42c-0.31-11.3-9.56-20.3-20.86-20.29l-1027.65,0.66
						C1402.28,2769.5,1389.09,2786.72,1393.81,2804.23z"/>
				</g>
				
					<linearGradient id="SVGID_13_" gradientUnits="userSpaceOnUse" x1="1427.2799" y1="1993.0541" x2="860.1552" y2="2961.0027" gradientTransform="matrix(1 -5.200000e-03 5.200000e-03 1 378.2248 -224.4017)">
					<stop  offset="0" style="stop-color:#A737D5"/>
					<stop  offset="1" style="stop-color:#EF497A"/>
				</linearGradient>
				<path class="st20" d="M1183.44,2756.69L1183.44,2756.69c8.22-4.88,18.85-2.05,23.55,6.28l22.11,39.16
					c2.21,3.92,7.95,3.64,9.77-0.47l53.7-121.25c2.68-6.05,11.68-4.06,11.61,2.56c-0.36,37-9.81,107.39-68.63,166.57
					c0,0-32.65-12.49-59.18-69.97C1172.54,2771.25,1175.58,2761.35,1183.44,2756.69z"/>
			</g>
		</g>
		<g>
			<path class="st9" d="M1022.69,787.21c-0.36-32.36,27.97-57.55,60.06-53.37c212.83,27.74,944.65,113.13,1549.09,63.57
				c27.56-2.26,51.6,18.51,53.22,46.12l132.34,2267.43c1.81,31.09-21.79,57.81-52.87,59.81c-254.24,16.37-1301.29,80-1675.07,42.82
				c-22.75-2.26-40.11-21.32-40.36-44.18L1022.69,787.21z"/>
			<path class="st2" d="M1048.04,843.91c-0.35-31.14,26.92-55.39,57.8-51.36c204.82,26.69,909.08,108.87,1490.76,61.17
				c26.53-2.18,49.66,17.81,51.21,44.38l127.36,2182.05c1.75,29.92-20.97,55.63-50.88,57.56
				c-244.66,15.76-1252.29,76.99-1611.99,41.21c-21.89-2.18-38.6-20.51-38.84-42.51L1048.04,843.91z"/>
			<g>
				<path class="st18" d="M1419.3,2200.93c-0.1,0-0.2,0-0.3,0l-111.07-0.49c-15.87-0.07-29.02-10.92-30.6-25.23l-10.25-93.13
					c-0.6-5.47,1.07-10.88,4.7-15.25c4.07-4.89,10.25-7.98,16.95-8.48l0,0c9.35-0.69,22.53-1.88,36.47-3.14
					c29.36-2.66,65.9-5.96,86.47-6.32c14.92-0.15,27.63,8.61,31.21,21.59c5.9,21.36,5.6,61.86,4.72,105
					C1447.33,2189.49,1434.66,2200.85,1419.3,2200.93z M1289.36,2066.85c-4.41,0.32-8.42,2.3-11.02,5.42
					c-2.14,2.57-3.13,5.72-2.78,8.86l10.25,93.13c1.1,10.01,10.63,17.59,22.16,17.64l111.07,0.49c0.07,0,0.15,0,0.22,0
					c10.76-0.06,19.63-7.69,19.83-17.1c0.86-42.49,1.17-82.3-4.42-102.56c-2.51-9.08-12-15.35-22.84-15.33
					c-20.26,0.36-56.63,3.65-85.85,6.29C1311.99,2064.97,1298.79,2066.16,1289.36,2066.85L1289.36,2066.85z"/>
				<path class="st19" d="M1301.36,2076.41c23.32-1.72,74.01-7.13,98.06-7.55c10.19-0.18,19.16,5.93,21.6,14.75
					c4.73,17.14,4.29,51.35,3.65,82.93c-0.19,9.46-8.84,17.05-19.44,17l-88.76-0.39c-10.91-0.05-20.01-7.44-21.08-17.13l-8.19-74.43
					C1286.35,2083.9,1292.72,2077.04,1301.36,2076.41z"/>
				<g class="st17">
					<path class="st18" d="M1516.53,2138.55c3.28,12.18,14.4,20.58,27.01,20.4l1027.56-14.11c11.62-0.16,20.87-9.79,20.56-21.42
						c-0.31-11.3-9.56-20.3-20.86-20.29l-1027.65,0.66C1525,2103.81,1511.81,2121.03,1516.53,2138.55z"/>
				</g>
				<path class="st18" d="M1420.54,2477.64c-0.1,0-0.2,0-0.3,0l-111.07-0.49c-15.87-0.07-29.02-10.92-30.6-25.23l-10.25-93.13
					c-0.6-5.47,1.07-10.88,4.7-15.25c4.07-4.89,10.25-7.98,16.95-8.47l0,0c9.35-0.69,22.52-1.88,36.47-3.14
					c29.36-2.66,65.9-5.96,86.47-6.32c0.15,0,0.3-0.01,0.45-0.01c14.61-0.08,27.22,8.75,30.77,21.6c5.9,21.36,5.6,61.86,4.72,105
					C1448.57,2466.2,1435.9,2477.56,1420.54,2477.64z M1290.6,2343.56c-4.41,0.32-8.42,2.3-11.02,5.42
					c-2.14,2.57-3.13,5.72-2.78,8.86l10.25,93.13c1.1,10.01,10.63,17.59,22.16,17.64l111.07,0.49c0.07,0,0.15,0,0.22,0
					c10.76-0.06,19.63-7.69,19.83-17.1c0.86-42.49,1.17-82.3-4.42-102.56c-2.51-9.07-12.13-15.56-22.84-15.33
					c-20.26,0.36-56.63,3.65-85.85,6.29C1313.23,2341.67,1300.03,2342.87,1290.6,2343.56L1290.6,2343.56z"/>
				<path class="st19" d="M1302.6,2353.12c23.32-1.72,74.01-7.13,98.06-7.55c10.19-0.18,19.16,5.93,21.6,14.75
					c4.73,17.14,4.29,51.35,3.65,82.93c-0.19,9.46-8.84,17.05-19.44,17l-88.76-0.39c-10.92-0.05-20.02-7.44-21.08-17.13l-8.19-74.43
					C1287.59,2360.61,1293.96,2353.75,1302.6,2353.12z"/>
				<g class="st17">
					<path class="st18" d="M1517.77,2415.25c3.28,12.18,14.4,20.58,27.01,20.4l1027.56-14.11c11.62-0.16,20.87-9.79,20.56-21.42
						c-0.31-11.3-9.56-20.3-20.86-20.29l-1027.65,0.66C1526.24,2380.52,1513.05,2397.74,1517.77,2415.25z"/>
				</g>
				<path class="st18" d="M1421.78,2765.95c-0.1,0-0.2,0-0.3,0l-111.07-0.49c-15.87-0.07-29.02-10.91-30.6-25.23l-10.25-93.13
					c-0.6-5.47,1.07-10.89,4.71-15.26c4.07-4.89,10.24-7.98,16.95-8.48l0,0c9.35-0.69,22.53-1.88,36.47-3.14
					c29.36-2.66,65.9-5.96,86.47-6.32c0.15,0,0.3-0.01,0.45-0.01c14.61-0.08,27.22,8.75,30.77,21.6c5.9,21.36,5.6,61.86,4.72,105
					C1449.81,2754.51,1437.14,2765.87,1421.78,2765.95z M1291.84,2631.87c-4.41,0.32-8.42,2.3-11.02,5.42
					c-2.14,2.57-3.13,5.72-2.78,8.87l10.25,93.13c1.1,10.01,10.63,17.59,22.16,17.64l111.07,0.49c0.07,0,0.15,0,0.22,0
					c10.76-0.06,19.63-7.69,19.83-17.1c0.86-42.49,1.17-82.3-4.42-102.56c-2.51-9.07-12.13-15.59-22.84-15.33
					c-20.26,0.36-56.63,3.65-85.85,6.29C1314.47,2629.99,1301.26,2631.18,1291.84,2631.87L1291.84,2631.87z"/>
				<path class="st19" d="M1303.84,2641.43c23.32-1.72,74.01-7.13,98.06-7.55c10.19-0.18,19.16,5.93,21.6,14.75
					c4.73,17.14,4.29,51.35,3.65,82.93c-0.19,9.46-8.84,17.05-19.44,17l-88.76-0.39c-10.92-0.05-20.02-7.44-21.08-17.13l-8.19-74.43
					C1288.82,2648.92,1295.19,2642.07,1303.84,2641.43z"/>
				<g class="st17">
					<path class="st18" d="M1519.01,2703.57c3.28,12.18,14.4,20.58,27.01,20.4l1027.55-14.11c11.62-0.16,20.87-9.79,20.56-21.42
						c-0.31-11.3-9.56-20.3-20.86-20.29l-1027.65,0.66C1527.48,2668.83,1514.29,2686.05,1519.01,2703.57z"/>
				</g>
				<path class="st18" d="M1430.76,3054.26c-0.1,0-0.2,0-0.3,0l-111.07-0.49c-15.87-0.07-29.02-10.91-30.6-25.23l-10.25-93.13
					c-0.6-5.47,1.07-10.89,4.7-15.26c4.07-4.89,10.24-7.98,16.95-8.47l0,0c9.35-0.69,22.53-1.88,36.47-3.14
					c29.36-2.66,65.9-5.96,86.47-6.32c0.15,0,0.3-0.01,0.45-0.01c14.61-0.08,27.22,8.75,30.77,21.6c5.9,21.36,5.6,61.86,4.72,105
					C1458.78,3042.82,1446.11,3054.18,1430.76,3054.26z M1300.82,2920.19c-4.41,0.32-8.42,2.3-11.02,5.42
					c-2.14,2.57-3.13,5.72-2.78,8.87l10.25,93.13c1.1,10.01,10.63,17.59,22.16,17.64l111.07,0.49c0.07,0,0.15,0,0.22,0
					c10.76-0.06,19.63-7.69,19.83-17.1c0.86-42.49,1.17-82.3-4.42-102.56c-2.51-9.07-12.13-15.62-22.84-15.33
					c-20.26,0.36-56.63,3.65-85.85,6.29C1323.44,2918.3,1310.24,2919.49,1300.82,2920.19L1300.82,2920.19z"/>
				<path class="st19" d="M1312.81,2929.74c23.32-1.72,74.01-7.13,98.06-7.55c10.19-0.18,19.16,5.93,21.6,14.75
					c4.73,17.14,4.29,51.35,3.65,82.93c-0.19,9.46-8.84,17.05-19.44,17l-88.76-0.39c-10.91-0.05-20.02-7.44-21.08-17.13l-8.19-74.43
					C1297.8,2937.23,1304.17,2930.38,1312.81,2929.74z"/>
				<g class="st17">
					<path class="st18" d="M1527.98,2991.88L1527.98,2991.88c3.28,12.18,14.4,20.58,27.01,20.4l1027.56-14.11
						c11.62-0.16,20.87-9.79,20.56-21.42c-0.31-11.3-9.56-20.3-20.86-20.29l-1027.65,0.66
						C1536.45,2957.14,1523.26,2974.36,1527.98,2991.88z"/>
				</g>
				<path class="st21" d="M1317.62,2944.33L1317.62,2944.33c8.22-4.88,18.85-2.05,23.55,6.28l22.11,39.16
					c2.21,3.92,7.95,3.64,9.77-0.47l53.7-121.25c2.68-6.05,11.68-4.05,11.61,2.56c-0.36,37-9.81,107.39-68.63,166.57
					c0,0-32.65-12.49-59.18-69.97C1306.72,2958.89,1309.75,2949,1317.62,2944.33z"/>
				<path class="st21" d="M1303.99,2646.54L1303.99,2646.54c8.22-4.88,18.85-2.05,23.55,6.28l22.11,39.16
					c2.21,3.92,7.95,3.64,9.77-0.47l53.7-121.25c2.68-6.05,11.68-4.06,11.61,2.56c-0.36,37-9.81,107.39-68.63,166.57
					c0,0-32.65-12.49-59.18-69.97C1293.09,2661.1,1296.13,2651.21,1303.99,2646.54z"/>
				<path class="st21" d="M1303.99,2358.73L1303.99,2358.73c8.22-4.88,18.85-2.05,23.55,6.28l22.11,39.16
					c2.21,3.92,7.95,3.64,9.77-0.47l53.7-121.25c2.68-6.05,11.68-4.05,11.61,2.56c-0.36,37-9.81,107.39-68.63,166.57
					c0,0-32.65-12.49-59.18-69.97C1293.09,2373.29,1296.13,2363.4,1303.99,2358.73z"/>
				<path class="st21" d="M1419.02,2008.23c2.68-6.05,11.68-4.05,11.61,2.56c-0.36,37-9.81,107.39-68.63,166.57
					c0,0-32.65-12.49-59.18-69.97c-3.83-8.3-0.8-18.19,7.07-22.86l0,0c8.22-4.88,18.85-2.05,23.55,6.28l22.11,39.16
					c2.21,3.92,7.95,3.64,9.77-0.47L1419.02,2008.23z"/>
			</g>
			<g>
				<path class="st18" d="M1397.15,1345.81c-0.1,0-0.2,0-0.3,0l-111.07-0.49c-15.87-0.07-29.02-10.92-30.6-25.23l-10.25-93.13
					c-0.6-5.47,1.07-10.88,4.7-15.25c4.07-4.89,10.25-7.98,16.95-8.47l0,0c9.35-0.69,22.53-1.88,36.47-3.14
					c29.36-2.66,65.9-5.96,86.47-6.32c0.15,0,0.3-0.01,0.45-0.01c14.61-0.08,27.22,8.75,30.77,21.6c5.9,21.36,5.6,61.86,4.72,105
					C1425.18,1334.38,1412.51,1345.73,1397.15,1345.81z M1267.21,1211.74c-4.41,0.32-8.42,2.3-11.02,5.42
					c-2.14,2.57-3.13,5.72-2.78,8.86l10.25,93.13c1.1,10.01,10.63,17.59,22.16,17.64l111.07,0.49c0.07,0,0.15,0,0.22,0
					c10.76-0.06,19.63-7.69,19.83-17.1c0.86-42.49,1.17-82.3-4.42-102.56c-2.51-9.07-12.13-15.56-22.84-15.33
					c-20.26,0.36-56.63,3.65-85.85,6.29C1289.84,1209.85,1276.64,1211.04,1267.21,1211.74L1267.21,1211.74z"/>
				<path class="st19" d="M1279.21,1221.29c23.32-1.72,74.01-7.13,98.06-7.55c10.19-0.18,19.16,5.93,21.6,14.75
					c4.73,17.14,4.29,51.35,3.65,82.93c-0.19,9.46-8.84,17.05-19.44,17l-88.76-0.39c-10.92-0.05-20.02-7.44-21.08-17.13l-8.19-74.43
					C1264.2,1228.79,1270.57,1221.93,1279.21,1221.29z"/>
				<g class="st17">
					<path class="st18" d="M1494.38,1283.43c3.28,12.18,14.4,20.58,27.01,20.4l1027.56-14.11c11.62-0.16,20.87-9.79,20.56-21.42
						c-0.31-11.3-9.56-20.3-20.86-20.29l-1027.65,0.66C1502.85,1248.69,1489.66,1265.92,1494.38,1283.43z"/>
				</g>
				<g class="st17">
					<path class="st18" d="M1344.26,1035.37c2.99,18.6,13.91,31.61,26.52,31.6l1027.7-0.73c11.63-0.01,21.1-14.49,21.07-32.18
						c-0.04-17.2-9.07-31.08-20.37-31.3l-1027.48-19.74C1353.55,982.67,1339.96,1008.61,1344.26,1035.37z"/>
				</g>
				<path class="st18" d="M1398.39,1634.13c-0.1,0-0.2,0-0.3,0l-111.07-0.49c-15.87-0.07-29.02-10.91-30.6-25.23l-10.25-93.13
					c-0.6-5.47,1.07-10.89,4.71-15.26c4.07-4.89,10.24-7.98,16.95-8.47l0,0c9.35-0.69,22.53-1.88,36.47-3.14
					c29.36-2.66,65.9-5.96,86.47-6.32c0.15,0,0.3-0.01,0.45-0.01c14.61-0.08,27.22,8.75,30.77,21.6c5.9,21.36,5.6,61.86,4.72,105
					C1426.42,1622.69,1413.75,1634.05,1398.39,1634.13z M1268.45,1500.05c-4.41,0.32-8.42,2.3-11.02,5.42
					c-2.14,2.57-3.13,5.72-2.78,8.87l10.25,93.13c1.1,10.01,10.63,17.59,22.16,17.64l111.07,0.49c0.07,0,0.15,0,0.22,0
					c10.76-0.06,19.63-7.69,19.83-17.1c0.86-42.49,1.17-82.3-4.42-102.56c-2.51-9.07-12.13-15.59-22.84-15.33
					c-20.26,0.36-56.63,3.65-85.85,6.29C1291.08,1498.16,1277.87,1499.36,1268.45,1500.05L1268.45,1500.05z"/>
				<path class="st19" d="M1280.45,1509.61c23.32-1.72,74.01-7.13,98.06-7.55c10.19-0.18,19.16,5.93,21.6,14.75
					c4.73,17.14,4.29,51.35,3.65,82.93c-0.19,9.46-8.84,17.05-19.44,17l-88.76-0.39c-10.91-0.05-20.01-7.44-21.08-17.13l-8.19-74.43
					C1265.43,1517.1,1271.8,1510.24,1280.45,1509.61z"/>
				<g class="st17">
					<path class="st18" d="M1495.62,1571.74c3.28,12.18,14.4,20.58,27.01,20.4l1027.56-14.11c11.62-0.16,20.87-9.79,20.56-21.42
						c-0.31-11.3-9.56-20.3-20.86-20.29l-1027.65,0.66C1504.09,1537.01,1490.9,1554.23,1495.62,1571.74z"/>
				</g>
				<path class="st18" d="M1407.37,1922.44c-0.1,0-0.2,0-0.3,0l-111.07-0.49c-15.87-0.07-29.02-10.91-30.6-25.23l-10.25-93.13
					c-0.6-5.47,1.07-10.89,4.71-15.26c4.07-4.89,10.24-7.98,16.95-8.47l0,0c9.35-0.69,22.53-1.88,36.47-3.14
					c29.36-2.66,65.9-5.96,86.47-6.32c0.15,0,0.3-0.01,0.45-0.01c14.61-0.08,27.22,8.75,30.77,21.6c5.9,21.36,5.6,61.86,4.72,105
					C1435.39,1911,1422.72,1922.36,1407.37,1922.44z M1277.43,1788.36c-4.41,0.32-8.42,2.3-11.02,5.42
					c-2.14,2.57-3.13,5.72-2.78,8.87l10.25,93.13c1.1,10.01,10.63,17.59,22.16,17.64l111.07,0.49c0.07,0,0.15,0,0.22,0
					c10.76-0.06,19.63-7.69,19.83-17.1c0.86-42.49,1.17-82.3-4.42-102.56c-2.51-9.07-12.13-15.62-22.84-15.33
					c-20.26,0.36-56.63,3.65-85.85,6.29C1300.05,1786.47,1286.85,1787.67,1277.43,1788.36L1277.43,1788.36z"/>
				<path class="st19" d="M1289.42,1797.92c23.32-1.72,74.01-7.13,98.06-7.55c10.19-0.18,19.16,5.93,21.6,14.75
					c4.73,17.14,4.29,51.35,3.65,82.93c-0.19,9.46-8.84,17.05-19.44,17l-88.76-0.39c-10.92-0.05-20.02-7.44-21.08-17.13l-8.19-74.43
					C1274.41,1805.41,1280.78,1798.55,1289.42,1797.92z"/>
				<g class="st17">
					<path class="st18" d="M1504.59,1860.06L1504.59,1860.06c3.28,12.18,14.4,20.58,27.01,20.4l1027.56-14.11
						c11.62-0.16,20.87-9.79,20.56-21.42c-0.31-11.3-9.56-20.3-20.86-20.29l-1027.65,0.66
						C1513.06,1825.32,1499.88,1842.54,1504.59,1860.06z"/>
				</g>
			</g>
		</g>
		<linearGradient id="SVGID_14_" gradientUnits="userSpaceOnUse" x1="4309.1982" y1="-1967.4906" x2="3962.9092" y2="-948.9913">
			<stop  offset="0" style="stop-color:#4F52FF"/>
			<stop  offset="1" style="stop-color:#4042E2"/>
		</linearGradient>
		<path class="st22" d="M2982.61,2269.03c1.6,4.37,65.51-122.08,65.51-122.08l-143.09-91.12l68.69-167.21l-169.05-97.25
			l214.09,94.35l-62.79,148.96c0,0,183.27,110.57,180.84,112.22C3134.38,2148.56,2982.61,2269.03,2982.61,2269.03z"/>
		
			<linearGradient id="SVGID_15_" gradientUnits="userSpaceOnUse" x1="775.1661" y1="-4879.4443" x2="428.8852" y2="-3860.9692" gradientTransform="matrix(-0.3426 0.9395 -0.9395 -0.3426 -1362.7606 -1820.6837)">
			<stop  offset="0" style="stop-color:#4F52FF"/>
			<stop  offset="1" style="stop-color:#4042E2"/>
		</linearGradient>
		<path class="st23" d="M3217.06,455c-5.87,3.96-124.13,211.49-124.13,211.49L2972.17,556.4c0,0-197.7,224.99-194.76,213.28
			s173.45-289.38,173.45-289.38l140.35,150.42L3217.06,455z"/>
		
			<linearGradient id="SVGID_16_" gradientUnits="userSpaceOnUse" x1="2560.7942" y1="-1073.6726" x2="2214.511" y2="-55.1904" gradientTransform="matrix(0.884 0.4675 -0.4675 0.884 128.5519 -668.0063)">
			<stop  offset="0" style="stop-color:#4F52FF"/>
			<stop  offset="1" style="stop-color:#4042E2"/>
		</linearGradient>
		<path class="st24" d="M1579.26,456.98c3.18,6.47,195.87,154.4,195.87,154.4l-127.67,106.41c0,0,199.28,230.4,187.88,225.82
			c-11.39-4.58-267.52-214.9-267.52-214.9l171.03-120.55L1579.26,456.98z"/>
		
			<linearGradient id="SVGID_17_" gradientUnits="userSpaceOnUse" x1="11443.1787" y1="-37551.3867" x2="11096.8809" y2="-36532.8633" gradientTransform="matrix(-0.8931 -0.4498 0.4498 -0.8931 -2706.4287 3792.5366)">
			<stop  offset="0" style="stop-color:#4F52FF"/>
			<stop  offset="1" style="stop-color:#4042E2"/>
		</linearGradient>
		<path class="st25" d="M1211.59,1604.21c12.96,7.32,236.35-13.72,236.35-13.72l-26.29-155.95c0,0,267.31-34.89,265.42-31.15
			s-325.96-18.56-325.96-18.56l42.17,167.34L1211.59,1604.21z"/>
		<g>
			<g>
				<g>
					
						<linearGradient id="SVGID_18_" gradientUnits="userSpaceOnUse" x1="-2432.1851" y1="3248.3538" x2="-2294.7761" y2="3248.3538" gradientTransform="matrix(-1 0 0 1 331.0112 0)">
						<stop  offset="0" style="stop-color:#4F52FF"/>
						<stop  offset="1" style="stop-color:#4042E2"/>
					</linearGradient>
					<path class="st26" d="M2629.67,3241.71c23.54,2.03,64.39,5.34,96.6,6.76c19.36,0.85,30.51-1.04,36.93-3.61
						c-0.01,0.72-0.03,1.41-0.06,2.04c-0.15,3.39-2.91,6.1-6.33,6.29c-60.86,3.4-109.26,1.18-126.49,0.13
						c-3.56-0.22-5.69-4.09-3.86-7.13C2627.36,3244.67,2628.47,3243.18,2629.67,3241.71z"/>
					
						<linearGradient id="SVGID_19_" gradientUnits="userSpaceOnUse" x1="-2432.1929" y1="3221.4233" x2="-2298.6565" y2="3221.4233" gradientTransform="matrix(-1 0 0 1 331.0112 0)">
						<stop  offset="0" style="stop-color:#09005D"/>
						<stop  offset="1" style="stop-color:#1A0F91"/>
					</linearGradient>
					<path class="st27" d="M2726.27,3248.47c-32.21-1.42-73.06-4.72-96.6-6.76c23.14-28.39,96.6-47.53,96.6-47.53h20.75
						c14.27,20.57,16.34,40.15,16.18,50.68C2756.78,3247.42,2745.63,3249.32,2726.27,3248.47z"/>
					
						<linearGradient id="SVGID_20_" gradientUnits="userSpaceOnUse" x1="-2419.4988" y1="3183.8247" x2="-2380.7937" y2="3183.8247" gradientTransform="matrix(-1 0 0 1 331.0112 0)">
						<stop  offset="0" style="stop-color:#FEBBBA"/>
						<stop  offset="1" style="stop-color:#FF928E"/>
					</linearGradient>
					<path class="st28" d="M2750.51,3160.3l-1.94,38.42c-0.21,4.16-3.32,7.66-7.49,8.25c-4.15,0.59-9.7,0.67-15.58-1.29
						c-3.62-1.21-6.31-4.26-6.98-7.98l-6.71-37.4H2750.51z"/>
				</g>
				<g>
					<g>
						
							<linearGradient id="SVGID_21_" gradientUnits="userSpaceOnUse" x1="-2706.1216" y1="3245.3904" x2="-2653.4641" y2="3245.3904" gradientTransform="matrix(-1 0 0 1 331.0112 0)">
							<stop  offset="0" style="stop-color:#4F52FF"/>
							<stop  offset="1" style="stop-color:#4042E2"/>
						</linearGradient>
						<path class="st29" d="M3019.99,3248.18c10.21-1.42,14.83-6.73,16.76-12.4c0.01,0.05,0.03,0.1,0.04,0.15
							c1.5,5.98-1.98,12.18-8.94,15.13c-8.41,3.56-17.61,4.17-24.75,3.88c-7.66-0.32-14.69-3.49-18.56-8.56l-0.06-0.08
							C2992.17,3250.1,3002.96,3250.55,3019.99,3248.18z"/>
						
							<linearGradient id="SVGID_22_" gradientUnits="userSpaceOnUse" x1="-2705.7383" y1="3204.8457" x2="-2628.4478" y2="3204.8457" gradientTransform="matrix(-1 0 0 1 331.0112 0)">
							<stop  offset="0" style="stop-color:#09005D"/>
							<stop  offset="1" style="stop-color:#1A0F91"/>
						</linearGradient>
						<path class="st30" d="M2971.86,3160.06h17.11c26.06-0.53,42.43,54.44,47.78,75.72c-1.94,5.67-6.56,10.97-16.76,12.4
							c-17.02,2.37-27.82,1.93-35.51-1.88c-14.08-18.53-21.06-45.66-24.42-61.5C2956.24,3166.79,2971.86,3160.06,2971.86,3160.06z"
							/>
					</g>
					
						<linearGradient id="SVGID_23_" gradientUnits="userSpaceOnUse" x1="-2665.564" y1="3151.5586" x2="-2619.3069" y2="3151.5586" gradientTransform="matrix(-1 0 0 1 331.0112 0)">
						<stop  offset="0" style="stop-color:#FEBBBA"/>
						<stop  offset="1" style="stop-color:#FF928E"/>
					</linearGradient>
					<path class="st31" d="M2986.77,3124.4l9.5,37.79c1.17,4.63-1.05,9.43-5.34,11.62c-5.31,2.73-12.8,5.59-19.67,4.76
						c-3.23-0.39-5.92-2.67-6.99-5.71l-13.95-39.76L2986.77,3124.4z"/>
				</g>
				
					<linearGradient id="SVGID_24_" gradientUnits="userSpaceOnUse" x1="-2307.8958" y1="2725.365" x2="-2819.9299" y2="3471.584" gradientTransform="matrix(-1 0 0 1 331.0112 0)">
					<stop  offset="0" style="stop-color:#4F52FF"/>
					<stop  offset="1" style="stop-color:#4042E2"/>
				</linearGradient>
				<path class="st32" d="M2998.1,3135.32c-11.82,10.49-50.27,11.87-50.27,11.87c-138.49-332.4-195.15-379.62-195.15-379.62
					c20,125.46,3.22,403.22,3.22,403.22c-22.85,10.08-52.32,0-52.32,0c-1.86-205.4-33.43-384.53-70.72-525.75
					c93.61-2.1,143.38-34.14,159.64-46.99C2870.53,2723.84,2998.1,3135.32,2998.1,3135.32z"/>
				<path class="st21" d="M2768.73,2215.79c17.72,88.38,11.37,246.55,7.2,318.7c-1.17,20.28,12.98,48.39,24.43,67.57
					c1.79,3.01,0.69,6.86-2.43,8.46c-19.16,9.85-84.05,40.36-159.27,44.16c-5.02,0.25-9.49-3.16-10.79-8.01
					c-55.79-208.32-120.6-341.44-120.6-341.44C2578.81,2190.96,2768.73,2215.79,2768.73,2215.79z"/>
				
					<linearGradient id="SVGID_25_" gradientUnits="userSpaceOnUse" x1="-2509.6843" y1="2980.2549" x2="-2487.5193" y2="2935.925" gradientTransform="matrix(-1 0 0 1 331.0112 0)">
					<stop  offset="0" style="stop-color:#53D8FF"/>
					<stop  offset="1" style="stop-color:#3840F7"/>
				</linearGradient>
				<path class="st33" d="M2743.23,2759.7c0.79,0,1.58-0.21,2.3-0.65c2.09-1.28,2.75-4,1.48-6.09
					c-0.75-1.23-18.66-30.18-54.91-47.67c-2.2-1.06-4.86-0.14-5.92,2.07c-1.06,2.21-0.14,4.86,2.07,5.92
					c33.8,16.31,51.02,44.02,51.19,44.3C2740.28,2758.94,2741.74,2759.7,2743.23,2759.7z"/>
				<g>
					
						<linearGradient id="SVGID_26_" gradientUnits="userSpaceOnUse" x1="-2453.6406" y1="2477.3071" x2="-2618.3069" y2="2623.1226" gradientTransform="matrix(-1 0 0 1 331.0112 0)">
						<stop  offset="0" style="stop-color:#FEBBBA"/>
						<stop  offset="1" style="stop-color:#FF928E"/>
					</linearGradient>
					<path class="st34" d="M2879.86,2469.42c-5.69,41.17-22.51,86.08-56.14,133.77l-12.79-10.42c0,0,14.76-59.89,6.37-127.85
						C2838.05,2460.88,2862.56,2465.05,2879.86,2469.42z"/>
					<path class="st21" d="M2748.94,2324.83l19.79-109.04c0,0,132.22,101.07,111.13,253.64c-17.3-4.38-41.81-8.55-62.56-4.5
						C2811.26,2415.96,2793.2,2362.81,2748.94,2324.83z"/>
				</g>
				<g>
					<path class="st21" d="M2507.27,2305.22l51.04,109.92c-8.25,66.36-43.9,95.05-82.34,106.06c-2.4-30.24-10.04-54.68-17.14-71.58
						C2507.94,2398.9,2507.27,2305.22,2507.27,2305.22z"/>
					
						<linearGradient id="SVGID_27_" gradientUnits="userSpaceOnUse" x1="-2144.9546" y1="2491.0994" x2="-2015.2736" y2="2491.0994" gradientTransform="matrix(-1 0 0 1 331.0112 0)">
						<stop  offset="0" style="stop-color:#FEBBBA"/>
						<stop  offset="1" style="stop-color:#FF928E"/>
					</linearGradient>
					<path class="st35" d="M2458.83,2449.61c7.1,16.9,14.74,41.34,17.14,71.58c-102.55,39.79-129.68-37.38-129.68-37.38l18.95-3.34
						C2408.04,2484.98,2437.93,2471.18,2458.83,2449.61z"/>
				</g>
				
					<linearGradient id="SVGID_28_" gradientUnits="userSpaceOnUse" x1="-2271.0083" y1="2144.5439" x2="-2272.4246" y2="2386.7144" gradientTransform="matrix(-1 0 0 1 331.0112 0)">
					<stop  offset="0" style="stop-color:#FEBBBA"/>
					<stop  offset="1" style="stop-color:#FF928E"/>
				</linearGradient>
				<path class="st36" d="M2554.29,2169.52l24.64,90.58c2.77,10.18,13.77,15.64,23.57,11.73c10.57-4.22,23.97-9.99,35.51-16.22
					c12.32-6.65,16.17-22.5,8.38-34.12l-51.23-76.38L2554.29,2169.52z"/>
			</g>
			<g>
				
					<linearGradient id="SVGID_29_" gradientUnits="userSpaceOnUse" x1="-2544.5144" y1="3255.8418" x2="-2663.7214" y2="3413.5432" gradientTransform="matrix(-0.9897 -0.1428 -0.1428 0.9897 470.0659 -1480.9402)">
					<stop  offset="0" style="stop-color:#FEBBBA"/>
					<stop  offset="1" style="stop-color:#FF928E"/>
				</linearGradient>
				<path class="st37" d="M2500.38,2100.7c-0.22,1.56,20.55,103.36,20.55,103.36l57.88-13.1l-5.35-99.42
					C2573.46,2091.55,2504.14,2074.66,2500.38,2100.7z"/>
				
					<linearGradient id="SVGID_30_" gradientUnits="userSpaceOnUse" x1="-2635.5549" y1="3293.8833" x2="-2493.1602" y2="3293.8833" gradientTransform="matrix(-0.9897 -0.1428 -0.1428 0.9897 470.0659 -1480.9402)">
					<stop  offset="0" style="stop-color:#09005D"/>
					<stop  offset="1" style="stop-color:#1A0F91"/>
				</linearGradient>
				<path class="st38" d="M2560.44,2113.7l6.92,52.11c0.09,0.67,0.09,1.33-0.01,2c-0.58,4.08-3.62,17.99-17.66,14.02
					c-12.74-3.61-24.42-6.71-32.49-4.24c-3.62,1.11-5.81,4.78-5.05,8.49c1.89,9.25,6.53,30.01,13.32,47.44
					c1.38,3.54,5.25,5.39,8.89,4.33c10.98-3.2,33.94-10.6,51.02-20.88c2.31-1.39,3.69-3.91,3.58-6.61
					c-0.56-13.16-2.09-53.15-0.8-64.36c1.22-10.52,14.13-16.83,19.74-19.09c1.84-0.74,3.28-2.19,4.02-4.03
					c2.6-6.51,6.18-21.58-12.81-27.75c-3.97-1.29-6.07-5.58-4.66-9.51c2.81-7.83,4-19.78-10.69-26.36
					c-14.93-6.69-26.08,1.27-32.1,7.74c-2.43,2.62-6.34,3.01-9.36,1.11c-1.72-1.09-3.93-1.44-6.61,0.22
					c-3.61,2.25-8.38,0.72-10.24-3.1c-3.58-7.34-10.86-15.2-25.48-12.7c-25.94,4.44-28.87,33.18-22.03,50.02
					c6.84,16.84,34.69,10.43,48.66,1.94c10.62-6.46,24.4,0.31,30.39,3.93C2558.89,2109.55,2560.15,2111.5,2560.44,2113.7z"/>
				
					<linearGradient id="SVGID_31_" gradientUnits="userSpaceOnUse" x1="-2719.1064" y1="3380.7295" x2="-2623.4922" y2="3282.6318" gradientTransform="matrix(-0.9897 -0.1428 -0.1428 0.9897 470.0659 -1480.9402)">
					<stop  offset="0" style="stop-color:#FEBBBA"/>
					<stop  offset="1" style="stop-color:#FF928E"/>
				</linearGradient>
				<path class="st39" d="M2590.5,2165c0,0-10.66-29.86,0.29-37.17c10.95-7.31,27.18-3.52,23.61,18.11
					C2609.95,2172.84,2590.5,2165,2590.5,2165z"/>
			</g>
			
				<linearGradient id="SVGID_32_" gradientUnits="userSpaceOnUse" x1="-2029.0509" y1="2475.8691" x2="-1982.611" y2="2475.8691" gradientTransform="matrix(-1 0 0 1 331.0112 0)">
				<stop  offset="0" style="stop-color:#FEBBBA"/>
				<stop  offset="1" style="stop-color:#FF928E"/>
			</linearGradient>
			<path class="st40" d="M2353.89,2497.93c-5.16,4.03-22.85-4.39-33.67-10.21c-5.27-2.84-7.83-9-6.02-14.71
				c2.6-8.21,6.94-18.81,12.29-20.15C2335.36,2450.65,2375.16,2481.31,2353.89,2497.93z"/>
			<g>
				<g>
					<path class="st41" d="M3224.64,2747.34l-1350.42-480.28l-71.45,198.46l1349.96,493.7c28.67,10.49,60.67-1.14,76.04-27.53
						c15.78-27.1,30.86-69.44,31.77-132.86C3260.86,2775.78,3246.36,2755.07,3224.64,2747.34z"/>
					<g>
						<path class="st41" d="M1456.43,2215.77l186.54,22.9c-0.2,25.67-8.6,58.89-37.06,96.99l-155.78-102.76
							C1441.86,2227.44,1446.6,2214.56,1456.43,2215.77z"/>
						
							<linearGradient id="SVGID_33_" gradientUnits="userSpaceOnUse" x1="-1217.2812" y1="2104.2832" x2="-2172.5498" y2="3086.0144" gradientTransform="matrix(-1 0 0 1 331.0112 0)">
							<stop  offset="0" style="stop-color:#FEBBBA"/>
							<stop  offset="1" style="stop-color:#FF928E"/>
						</linearGradient>
						<path class="st42" d="M1874.21,2267.06c8.54,124.38-71.45,198.46-71.45,198.46l-196.86-129.86
							c28.46-38.11,36.86-71.32,37.06-96.99L1874.21,2267.06z"/>
					</g>
				</g>
				
					<linearGradient id="SVGID_34_" gradientUnits="userSpaceOnUse" x1="-1799.8235" y1="2132.9414" x2="-2661.9258" y2="3018.9253" gradientTransform="matrix(-1 0 0 1 331.0112 0)">
					<stop  offset="0" style="stop-color:#4F52FF"/>
					<stop  offset="1" style="stop-color:#4042E2"/>
				</linearGradient>
				<path class="st43" d="M3207.88,2808.2c1.64,0,3.17-1.02,3.74-2.65c0.73-2.07-0.35-4.33-2.42-5.06l-1291.99-456.6
					c-2.07-0.73-4.34,0.35-5.06,2.42c-0.73,2.07,0.35,4.33,2.42,5.06l1291.99,456.6C3207,2808.13,3207.44,2808.2,3207.88,2808.2z"/>
				
					<linearGradient id="SVGID_35_" gradientUnits="userSpaceOnUse" x1="-1777.5342" y1="2210.8003" x2="-2639.6384" y2="3096.7861" gradientTransform="matrix(-1 0 0 1 331.0112 0)">
					<stop  offset="0" style="stop-color:#4F52FF"/>
					<stop  offset="1" style="stop-color:#4042E2"/>
				</linearGradient>
				<path class="st44" d="M3185.59,2886.06c1.64,0,3.17-1.02,3.74-2.65c0.73-2.07-0.35-4.33-2.42-5.06l-1291.99-456.6
					c-2.07-0.73-4.33,0.35-5.06,2.42c-0.73,2.07,0.35,4.33,2.42,5.06l1291.99,456.6
					C3184.71,2885.99,3185.16,2886.06,3185.59,2886.06z"/>
			</g>
			
				<linearGradient id="SVGID_36_" gradientUnits="userSpaceOnUse" x1="-2388.6135" y1="2550.7402" x2="-2553.28" y2="2696.5559" gradientTransform="matrix(-1 0 0 1 331.0112 0)">
				<stop  offset="0" style="stop-color:#FEBBBA"/>
				<stop  offset="1" style="stop-color:#FF928E"/>
			</linearGradient>
			<path class="st45" d="M2816.21,2590.96l-59.69-4.86l-25.85,23.83c0,0,6.12,8.45,25.23,3.59c19.12-4.86,45.31-6.05,45.31-6.05
				s26.39,11.9,26.72-10.36L2816.21,2590.96z"/>
		</g>
		<g>
			<g>
				<path class="st41" d="M1748.26,1273.41c0,338.29,284.61,612.54,635.7,612.54c351.09,0,651.42-286.23,651.42-624.52
					c0-338.29-300.34-600.55-651.42-600.55C2032.87,660.87,1748.26,935.11,1748.26,1273.41z"/>
				<g>
					<path class="st2" d="M2985.47,1124.47c0.38,0,0.75-0.04,1.13-0.14c2.34-0.6,3.74-2.92,3.12-5.18
						c-6.84-24.75-15.58-49.3-25.97-72.97c-0.95-2.15-3.54-3.13-5.75-2.25c-2.23,0.92-3.27,3.39-2.33,5.55
						c10.24,23.3,18.84,47.47,25.57,71.85C2981.75,1123.22,2983.53,1124.47,2985.47,1124.47z"/>
					<path class="st2" d="M2888.33,933.05c0.92,0,1.85-0.28,2.64-0.85c1.93-1.4,2.32-4.06,0.86-5.92
						c-117.78-150.5-307.5-240.34-507.49-240.34c-85.41,0-168.03,16.69-245.54,49.58c-2.22,0.94-3.22,3.45-2.25,5.58
						c0.97,2.14,3.57,3.11,5.79,2.17c76.39-32.43,157.81-48.87,242-48.87c197.26,0,384.35,88.58,500.48,236.96
						C2885.68,932.47,2886.99,933.05,2888.33,933.05z"/>
				</g>
				<path class="st13" d="M1834.75,1273.41c0,292.83,246.36,530.22,550.27,530.22s563.88-247.76,563.88-540.59
					c0-292.83-259.97-519.85-563.88-519.85S1834.75,980.57,1834.75,1273.41z"/>
				<path class="st14" d="M2808.27,1245.91c1.36,22.51,21.4,39.69,44.76,38.38c23.36-1.31,41.19-20.62,39.83-43.12
					c-1.36-22.51-21.4-39.69-44.76-38.38C2824.74,1204.09,2806.91,1223.4,2808.27,1245.91z"/>
				<path class="st14" d="M1893.01,1297.24c1.36,22.51,21.4,39.69,44.75,38.38c23.36-1.31,41.19-20.62,39.83-43.12
					c-1.36-22.51-21.4-39.69-44.75-38.38C1909.48,1255.42,1891.65,1274.73,1893.01,1297.24z"/>
				<path class="st14" d="M2467.68,1663.56c-23.02,4.05-38.27,25.31-34.06,47.49s26.27,36.87,49.29,32.82
					c23.02-4.05,38.27-25.31,34.06-47.49C2512.77,1674.2,2490.7,1659.51,2467.68,1663.56z"/>
				<path class="st14" d="M2302.95,794.53c-23.02,4.05-38.27,25.31-34.06,47.49c4.2,22.18,26.27,36.87,49.29,32.82
					c23.02-4.05,38.27-25.31,34.06-47.49C2348.04,805.17,2325.97,790.48,2302.95,794.53z"/>
				<path class="st14" d="M2166.5,1686.89c-4.31,10.47-3.23,20.27,2.4,21.89c5.63,1.62,13.69-5.55,17.99-16.01
					c4.31-10.47,3.23-20.27-2.4-21.89C2178.86,1669.25,2170.8,1676.42,2166.5,1686.89z"/>
				<path class="st14" d="M2534.71,862.61c-4.3,10.47-3.23,20.27,2.4,21.89c5.63,1.62,13.69-5.55,17.99-16.01
					c4.3-10.47,3.23-20.27-2.4-21.89C2547.07,844.98,2539.01,852.15,2534.71,862.61z"/>
				<path class="st14" d="M1974.24,1530.2c-9.32,6.79-13.68,15.71-9.74,19.91c3.94,4.21,14.69,2.11,24.01-4.68
					c9.32-6.79,13.68-15.71,9.74-19.91C1994.31,1521.31,1983.56,1523.41,1974.24,1530.2z"/>
				<path class="st14" d="M2733.1,1009.96c-9.32,6.79-13.68,15.7-9.74,19.91c3.94,4.21,14.69,2.11,24.01-4.68
					c9.32-6.79,13.68-15.71,9.74-19.91C2753.16,1001.07,2742.41,1003.17,2733.1,1009.96z"/>
				<path class="st14" d="M1950.09,1063.48c-10.55-4.84-20.77-4.46-22.83,0.85c-2.06,5.31,4.82,13.53,15.37,18.37
					c10.55,4.84,20.77,4.46,22.83-0.84C1967.53,1076.55,1960.64,1068.32,1950.09,1063.48z"/>
				<path class="st14" d="M2778.96,1472.68c-10.55-4.84-20.77-4.46-22.83,0.84c-2.06,5.31,4.83,13.53,15.37,18.37
					c10.55,4.84,20.77,4.46,22.83-0.84C2796.39,1485.75,2789.51,1477.52,2778.96,1472.68z"/>
				<path class="st14" d="M2125.22,889.14c-6.41-9.41-15.35-14.2-19.96-10.7c-4.62,3.51-3.17,13.98,3.24,23.39
					c6.41,9.41,15.35,14.2,19.96,10.7C2133.08,909.03,2131.63,898.55,2125.22,889.14z"/>
				<path class="st14" d="M2613.1,1653.54c-6.41-9.41-15.35-14.2-19.96-10.7c-4.62,3.5-3.17,13.98,3.24,23.39
					c6.41,9.41,15.35,14.2,19.96,10.7C2620.96,1673.43,2619.51,1662.96,2613.1,1653.54z"/>
				<path class="st21" d="M2386.68,1263.49l371.58,67.06c7.2,1.3,13.37-5.34,11.27-12.12l-12.52-40.33
					c-2.43-7.84,6.03-14.9,13.64-11.37l292.76,135.73c8.96,4.15,6.14,17.23-3.85,17.9l-322.85,21.51
					c-7.73,0.51-12.78-7.49-8.85-14.01l26.38-43.86c3.26-5.42,0.35-12.26-5.86-13.76l-366.17-88.34c-5.1-1.23-8.17-6.2-6.92-11.19
					l0,0C2376.52,1265.75,2381.56,1262.56,2386.68,1263.49z"/>
				<path class="st18" d="M3026.26,1411.69c3.05-0.84,5.36-3.24,5.99-6.39c0.75-3.77-1.15-7.31-4.73-8.84l-63.32-27.01
					c-2.19-0.94-4.8,0.05-5.8,2.19c-1.01,2.15-0.05,4.64,2.15,5.58l63.32,27.01c-73.36,3.88-244.73,14.6-248.18,15.2
					c-2.34,0.37-4.02,2.61-3.64,4.92c0.38,2.28,2.57,3.8,4.92,3.44c5.06-0.59,136.37-8.88,247.45-15.8
					C3025.05,1411.96,3025.67,1411.86,3026.26,1411.69z"/>
				<path class="st21" d="M2366.65,1240.87l0.68-320.63c-0.11-7.1-8.05-11.51-14.48-8.06l-38.28,20.56c-7.45,4-16.26-2.5-14.2-10.47
					l79.18-306.56c2.42-9.38,16.2-9.54,18.85-0.21l85.7,301.14c2.05,7.21-5.03,13.72-12.41,11.41l-49.55-15.53
					c-6.13-1.92-12.46,2.31-12.74,8.51l-23.26,320.1c-0.23,5.1-4.64,9.08-9.94,8.97l0,0
					C2370.95,1250,2366.73,1245.92,2366.65,1240.87z"/>
				<path class="st18" d="M2457.79,887.25c0.54,0,1.08-0.09,1.6-0.29c2.23-0.84,3.34-3.25,2.52-5.4
					c-1.59-4.64-35.98-127.23-65-230.96c-1.03-3.67-4.26-6.08-8.32-5.99c-3.95,0.1-7.17,2.67-8,6.39l-14.76,65.8
					c-0.51,2.28,0.99,4.54,3.37,5.02c2.34,0.5,4.7-0.95,5.22-3.24l14.76-65.8c18.46,68.65,63.25,228.63,64.53,231.78
					C2454.39,886.23,2456.04,887.25,2457.79,887.25z"/>
				<ellipse class="st41" cx="2387.86" cy="1258.06" rx="45.25" ry="43.6"/>
			</g>
		</g>
	</g>
</g>
</svg>
