<svg width="68" height="64" viewBox="0 0 68 64" fill="none" xmlns="http://www.w3.org/2000/svg">
<path d="M12 9.14286C15.219 9.14286 17.7143 11.6381 17.7143 14.8571C17.6251 16.64 16.6149 18.3057 16.0836 18.9663C19.8563 14.3647 25.5852 11.4286 32 11.4286C37.8762 11.4286 43.1769 13.8924 46.9256 17.8433C46.1661 16.859 45.7143 15.6251 45.7143 14.2857C45.7143 11.0667 48.3238 8.45714 51.5429 8.45714C53.3518 8.45714 54.9126 9.65018 55.487 10.2659C55.1785 9.93265 54.8629 9.60599 54.5406 9.28613C48.7568 3.5461 40.7925 0 32 0C22.4059 0 13.7979 4.22215 7.93284 10.9097C8.9876 9.85498 10.3905 9.14286 12 9.14286Z" fill="url(#paint0_linear_451_480)"/>
<path d="M14.7429 45.9429C11.5238 45.9429 8.91429 48.5524 8.91429 51.7714C8.91429 53.6215 9.74369 54.9346 10.3536 55.5679C10.4566 55.6625 10.5602 55.7565 10.6645 55.8498C16.3261 60.9181 23.8032 64 32 64C41.2937 64 49.6621 60.0381 55.5083 53.7111C54.9306 54.3322 53.3554 55.5429 51.5429 55.5429C48.3238 55.5429 45.7143 52.9333 45.7143 49.7143C45.7143 48.3749 46.1661 47.141 46.9256 46.1567C43.1769 50.1076 37.8762 52.5714 32 52.5714C27.5475 52.5714 23.4255 51.1569 20.0587 48.7527C19.6154 48.4362 19.1852 48.1025 18.769 47.7526C18.7336 47.7229 18.6984 47.693 18.6632 47.663C17.9067 47.0378 16.2235 45.9429 14.7429 45.9429Z" fill="url(#paint1_linear_451_480)"/>
<path d="M17.7143 14.8571C17.7143 11.6381 15.219 9.14286 12 9.14286C10.3905 9.14286 8.9876 9.85498 7.93284 10.9097C7.72069 11.1516 7.51213 11.3968 7.30724 11.645C2.74226 17.1765 0 24.268 0 32C0 40.2917 3.15367 47.8469 8.32698 53.5314C8.97186 54.24 9.64812 54.9196 10.3536 55.5679C9.74369 54.9346 8.91429 53.6215 8.91429 51.7714C8.91429 48.5524 11.5238 45.9429 14.7429 45.9429C16.2235 45.9429 17.9067 47.0378 18.6632 47.663C18.2453 47.3068 17.8418 46.9342 17.4538 46.5462C13.7311 42.8235 11.4286 37.6806 11.4286 32C11.4286 27.0761 13.1585 22.5563 16.0437 19.0151C16.057 18.9988 16.0703 18.9826 16.0836 18.9663C16.6149 18.3057 17.6251 16.64 17.7143 14.8571Z" fill="url(#paint2_linear_451_480)"/>
<path d="M45.7143 49.7143C45.7143 52.9333 48.3238 55.5429 51.5429 55.5429C53.3554 55.5429 54.9306 54.3322 55.5083 53.7111C55.9578 53.2245 56.3925 52.724 56.8115 52.2103C61.3052 46.7001 64 39.6647 64 32C64 24.3353 61.3052 17.2999 56.8115 11.7897C56.3915 11.2748 55.956 10.7733 55.5053 10.2857L55.487 10.2659C54.9126 9.65018 53.3518 8.45714 51.5429 8.45714C48.3238 8.45714 45.7143 11.0667 45.7143 14.2857C45.7143 15.6251 46.1661 16.859 46.9256 17.8433C47.0976 18.0246 47.2665 18.2091 47.4319 18.3967C47.4716 18.4417 47.5112 18.4869 47.5505 18.5323C50.6786 22.141 52.5714 26.8494 52.5714 32C52.5714 33.4 52.4316 34.7673 52.1651 36.0887C51.4512 39.6289 49.8283 42.8399 47.5505 45.4677C47.3474 45.7021 47.139 45.9318 46.9256 46.1567C46.1661 47.141 45.7143 48.3749 45.7143 49.7143Z" fill="url(#paint3_linear_451_480)"/>
<g filter="url(#filter0_d_451_480)">
<path d="M23.9999 21.2571C20.9702 21.2571 18.5142 23.7132 18.5142 26.7429C18.5142 28.2577 19.1282 29.6291 20.1209 30.6218C22.5413 33.7536 27.3624 39.9424 29.2018 42.1365C29.4196 42.3963 29.5956 42.6001 29.7209 42.7361C30.7136 43.7288 32.085 44.3429 33.5999 44.3429C35.1147 44.3429 36.2643 43.507 37.257 42.5143C37.9427 41.8286 38.4314 41.1019 38.9713 40.1958C44.5701 30.8001 54.4766 15.5419 60.7053 10.5163C61.3713 9.97901 61.9103 9.51818 62.3999 9.02857C63.3926 8.03585 63.9999 7.00055 63.9999 5.48571C63.9999 2.45604 61.5438 0 58.5142 0C56.9993 0 55.8789 0.678986 54.6284 1.48571C50.857 4.34286 38.5948 20.3092 33.1427 28.2286C32.6856 28.6857 32.3427 28.419 32.2284 28.2286L28.6009 23.7544L27.8789 22.8639C26.8861 21.8712 25.5147 21.2571 23.9999 21.2571Z" fill="white"/>
</g>
<defs>
<filter id="filter0_d_451_480" x="14.5142" y="0" width="53.4858" height="52.3428" filterUnits="userSpaceOnUse" color-interpolation-filters="sRGB">
<feFlood flood-opacity="0" result="BackgroundImageFix"/>
<feColorMatrix in="SourceAlpha" type="matrix" values="0 0 0 0 0 0 0 0 0 0 0 0 0 0 0 0 0 0 127 0" result="hardAlpha"/>
<feOffset dy="4"/>
<feGaussianBlur stdDeviation="2"/>
<feComposite in2="hardAlpha" operator="out"/>
<feColorMatrix type="matrix" values="0 0 0 0 0 0 0 0 0 0 0 0 0 0 0 0 0 0 0.1 0"/>
<feBlend mode="normal" in2="BackgroundImageFix" result="effect1_dropShadow_451_480"/>
<feBlend mode="normal" in="SourceGraphic" in2="effect1_dropShadow_451_480" result="shape"/>
</filter>
<linearGradient id="paint0_linear_451_480" x1="12.2286" y1="7.08571" x2="57.1429" y2="7.08571" gradientUnits="userSpaceOnUse">
<stop stop-color="white"/>
<stop offset="1" stop-color="#62A2FF"/>
</linearGradient>
<linearGradient id="paint1_linear_451_480" x1="10.5143" y1="56.5714" x2="53.4857" y2="56.5714" gradientUnits="userSpaceOnUse">
<stop stop-color="#62A2FF"/>
<stop offset="1" stop-color="white"/>
</linearGradient>
<linearGradient id="paint2_linear_451_480" x1="8.8" y1="9.48571" x2="7.65714" y2="51.5429" gradientUnits="userSpaceOnUse">
<stop stop-color="#62A2FF"/>
<stop offset="1" stop-color="white"/>
</linearGradient>
<linearGradient id="paint3_linear_451_480" x1="55.8857" y1="10.9714" x2="55.8857" y2="53.4857" gradientUnits="userSpaceOnUse">
<stop stop-color="white"/>
<stop offset="1" stop-color="#62A2FF"/>
</linearGradient>
</defs>
</svg>
